<svg id="Layer_1" data-name="Layer 1" xmlns="http://www.w3.org/2000/svg" viewBox="0 0 459.46 768.01"><defs><style>.cls-1{fill:#299646;}.cls-1,.cls-2,.cls-3{fill-rule:evenodd;}.cls-2{fill:#97c93d;}.cls-3{fill:#f9bc15;}.cls-4{fill:#564035;}</style></defs><g id="Layer_2" data-name="Layer 2"><g id="Layer_1-2" data-name="Layer 1-2"><path class="cls-1" d="M447.79,203.88a17.93,17.93,0,0,0,2.28.76A4,4,0,0,0,447.79,203.88ZM356.1,320.08c-58.65-26.32-157.19-44.18-228.17-47.72L166,282.82A546.62,546.62,0,0,1,341.63,374.3c22.44,18.28,44.74,36.07,49.58,39.67,10.46,7.76,65.44-14.74,65.44-26.72C456.86,377.9,397.86,338.5,356.1,320.08Zm-39.88,87.73C261.17,359.34,103.7,294,103.7,319.8c0,3.18,18.56,10.94,41.55,17.24,44.18,12.26,84.13,41.55,101.24,74.93,9.27,18.56,12.46,19.66,53,19.66H342.6Zm-132.4-6.92c-20.78-17-45.5-27.36-45.5-18.84,0,6.1,24,20.78,47.23,29.09l18.56,6.57ZM353,801.14c-32.34,0-45.64,1.17-29.43,2.63a398.76,398.76,0,0,0,58.86,0C398.62,802.31,385.4,801.14,353,801.14Z" transform="translate(-71.65 -36.85)"/><path class="cls-2" d="M494,333.23c-2.22,8.38-6.93,13.85-10.18,11.43s-2.84-10,1.38-17.87C494.39,309.41,499.17,312.94,494,333.23Z" transform="translate(-71.65 -36.85)"/><path class="cls-2" d="M497.3,245A301.6,301.6,0,0,1,467,276.59c-30.68,29.77-33.86,31.23-49.86,22.64L400,290.09a240.62,240.62,0,0,1,62.94-33C480.54,250.62,496,245.15,497.3,245Z" transform="translate(-71.65 -36.85)"/><path class="cls-2" d="M418.7,224.38c-22.85,11.7-49.23,26-58.79,31.78-13.85,8.59-21.26,9.07-38.08,2.56-19.67-7.62-20-8.45-6.93-15.72a554.84,554.84,0,0,1,58.86-23.33,295.67,295.67,0,0,1,65.79-16.07,54.89,54.89,0,0,1,8.31,0,16.48,16.48,0,0,0,2.28.76h0C452.43,206.51,443.36,211.77,418.7,224.38Z" transform="translate(-71.65 -36.85)"/><path class="cls-2" d="M471.33,202.63c-5.33,3.39-65.64,23.62-72.15,21.81l48.12-17.31c-.83,0-11,4.09-11.7,3.81-2.91-1.18-28.11,0-28.11-1.8a271.16,271.16,0,0,1,54.56-12.95C475.9,196.19,478.46,198.13,471.33,202.63Z" transform="translate(-71.65 -36.85)"/><path class="cls-3" d="M477.29,150.56c-80.26,16.13-128.73,24-209.82,67.31C229.87,236.84,223.29,238,174,234c-29.15-2.35-56.64-5.33-61.14-6.92-10.11-3.19,7.75-64.2,35.73-122.57l19-39.89h269C446.82,86.09,467.18,129.16,477.29,150.56Z" transform="translate(-71.65 -36.85)"/><path class="cls-4" d="M300.08,36.92H152L138.11,59.43v.07C60.83,207.34,6.54,419.58,238.18,454.21l52.49,8.31V596.3c0,130.26.41,134.2,15.85,149.72a94.49,94.49,0,0,0,44.6,20.42c47,7.55,42.45,18.42-7.76,18.42-24.72,0-46.88,3.12-49.23,6.93s18.14,6.92,57.75,6.92c59,0,61.91-.69,58.44-13.85-3.8-26-59.27-35.73-95.42-44.8-1-69.25-2.84-209.13-3.81-278.51l38.16-4.5c50.34-5.89,98.81-22.58,126.65-43.56,68.07-51.1,73.47-167.09,14.68-302.75C456.17,31.59,470.15,36.92,300.08,36.92ZM150.79,73.28v-.21c9.69-15.58,12.11-15.58,153.45-15.58H447.65c9.07,20.22,44.66,92.86,40.86,102.76-2.08,3.4-22.23,8-44.81,10.32-45.36,5.06-133.23,35.25-180,62.32-28.39,16.41-34.63,17.31-97,13.85-36.56-2.08-68.83-5.81-71.74-8.45C85.9,230.12,125.3,113.58,150.79,73.28ZM219.2,429.49c-13.64,13.64-108.58-39.34-108.58-60.6,0-9.2,23.2-7.34,49.31,3.61S226.13,422.56,219.2,429.49Zm53.88,13.36c-26.87-4.29-32.55-8.1-40.72-27.7-12.4-30-45.22-52.76-97-66.61-36.91-10.18-42.38-13.85-44.32-30h.07c-2.63-22.09,3.74-22.85,63.5-7.41,56.37,14.54,138.5,58.17,180.74,95.91L370,437.59C341,442.85,302,447.56,273.08,442.85Zm125.2-11.22c-6.58,0-28.95-15.58-49.72-34.62A459.07,459.07,0,0,0,123.92,288c-20.78-3.25-31.3-9-32.9-17.1l-.13-.42c-1.94-10.18,3.46-12,36.07-12,56.93,0,168.83,23.76,227.21,47.92,49.16,20.57,116.61,65.3,121.66,80.75C478.6,395.76,416.07,431.63,398.28,431.63Zm117.3-122.91c-5.82,29.57-17.93,60.59-23.61,60.59-7.62,0-35.32-21.05-35.32-26.52,0-3.05,9.56-16.9,21.26-30.75C505.26,278.87,521.81,277.42,515.58,308.72ZM512.19,248c0,11.22-6.58,20.84-19.39,28.39-18.7,10.53-38.23,37.74-50.41,56.78-13.85-7.61-67.52-33.3-66.41-43.21,1.18-3.81,24.65-18.62,52.35-32.89C488.51,225.9,512.19,223.34,512.19,248Zm-8-50.69c1.66,8.52-8.87,15.16-41.55,26-40,12.81-80.54,38-113.15,61.28-17.38-5.47-78.12-23.47-84-28.46-6.93-6.58,81.57-46.88,131.57-60C456.51,180.2,500.9,180.75,504.16,197.3Z" transform="translate(-71.65 -36.85)"/></g></g></svg>