<svg xmlns="http://www.w3.org/2000/svg" viewBox="0 0 357.64 110.9"><defs><style>.cls-1{fill:#27963c;}.cls-1,.cls-2,.cls-3,.cls-4,.cls-5{fill-rule:evenodd;}.cls-2{fill:#96cc2e;}.cls-3{fill:#fbbc09;}.cls-4{fill:#e5e9de;}.cls-5{fill:#553f34;}</style></defs><g id="Layer_2" data-name="Layer 2"><g id="Layer_1-2" data-name="Layer 1"><path class="cls-1" d="M54.33,24.11a2.55,2.55,0,0,0,.33.11A.58.58,0,0,0,54.33,24.11ZM41.09,40.89c-8.47-3.8-22.7-6.38-32.95-6.89l5.5,1.51A78.93,78.93,0,0,1,39,48.72c3.24,2.64,6.46,5.21,7.16,5.73,1.51,1.12,9.45-2.13,9.45-3.86C55.64,49.24,47.12,43.55,41.09,40.89ZM35.33,53.56c-7.95-7-30.69-16.44-30.69-12.71,0,.46,2.68,1.58,6,2.49,6.38,1.77,12.15,6,14.62,10.82C26.6,56.84,27.06,57,32.92,57l6.22,0Zm-19.12-1c-3-2.45-6.57-3.95-6.57-2.72,0,.88,3.46,3,6.82,4.2l2.68.95Zm251.15,4.16c-.22-1.78-.4-.08-.39,3.77s.18,5.3.4,3.23A37.13,37.13,0,0,0,267.36,56.74Zm63.48.77c0,1.65.24,2.2.49,1.23C331.93,57.16,330.87,53.08,330.84,57.51ZM40.64,110.36c-4.67,0-6.59.17-4.25.38a57.42,57.42,0,0,0,8.5,0C47.23,110.53,45.32,110.36,40.64,110.36Z"/><path class="cls-2" d="M61,42.79c-.32,1.21-1,2-1.47,1.65s-.41-1.44.2-2.58C61.06,39.35,61.75,39.86,61,42.79Z"/><path class="cls-2" d="M61.48,30.05a43.45,43.45,0,0,1-4.38,4.56c-4.43,4.3-4.89,4.51-7.2,3.27l-2.47-1.32a34.78,34.78,0,0,1,9.09-4.76C59.06,30.86,61.29,30.07,61.48,30.05Z"/><path class="cls-2" d="M50.13,27.07c-3.3,1.69-7.11,3.75-8.49,4.59-2,1.24-3.07,1.31-5.5.37-2.84-1.1-2.89-1.22-1-2.27a80.33,80.33,0,0,1,8.5-3.37,42.77,42.77,0,0,1,9.5-2.32,8.06,8.06,0,0,1,1.2,0,2.55,2.55,0,0,0,.33.11h0C55,24.49,53.69,25.25,50.13,27.07Z"/><path class="cls-2" d="M123.38,44.71c-.19-4-.34-.45-.34,7.8s.16,11.49.34,7.2S123.57,48.68,123.38,44.71Zm224.26,5.57c-2.48,0-3.49.2-2.25.44a14.76,14.76,0,0,0,4.5,0C351.13,50.48,350.12,50.28,347.64,50.28Zm-53,7c-1.92,0-2.71.21-1.75.46a8.26,8.26,0,0,0,3.5,0C297.35,57.45,296.56,57.24,294.64,57.24Z"/><path class="cls-2" d="M57.73,23.93c-.77.49-9.48,3.41-10.42,3.15l6.95-2.5c-.12,0-1.59.59-1.69.55-.42-.17-4.06,0-4.06-.26A39.16,39.16,0,0,1,56.39,23C58.39,23,58.76,23.28,57.73,23.93Z"/><path class="cls-3" d="M58.59,16.41C47,18.74,40,19.88,28.29,26.13c-5.43,2.74-6.38,2.9-13.5,2.33-4.21-.34-8.18-.77-8.83-1C4.5,27,7.08,18.19,11.12,9.76L13.87,4H52.72C54.19,7.1,57.13,13.32,58.59,16.41Z"/><path class="cls-4" d="M9.16,10.26C5.71,17.75,2.33,29,3.48,29.08s15,1.4,18.66,1.74l9-4.34a89,89,0,0,1,25.75-8c2.06-.33,3.75-.8,3.75-1.05-.19-1-5-11.69-6.27-14.46H12.51L9.16,10.26m1.95-.5C7.07,18.19,4.5,27,6,27.49c.65.2,4.62.64,8.83,1,7.11.57,8.07.41,13.5-2.32C40,19.88,47,18.74,58.58,16.41L52.72,4H13.87L11.11,9.76m36.55,13.3c-7.59,2-20.71,7.6-19.86,8.45.83.67,9.83,3.33,12.34,4.11,4.78-3.22,12.07-7.77,17.18-9.3,3.81-1.2,5.3-2.15,5.09-3.25-.43-2.31-6.09-2.31-14.75,0m-1,2.29c-8.47,2.53-14,4.83-14,5.82,0,.37,1.7.95,3.79,1.31,3.21.54,4.7.09,9.75-3a57.73,57.73,0,0,1,15-6.37c-4.67-.21-8.26.4-14.5,2.2m6.5,5.59a63.4,63.4,0,0,0-7.88,4.28c-1.77,1.37-1.62,1.6,2.68,4.12,5.59,3.28,6.09,3.29,7.5.2a14.69,14.69,0,0,1,4.65-4.75c2.3-1.48,3.53-3.06,3.53-4.53,0-3.08-2.94-2.89-10.48.68m-.42,2.27-6.2,3.19,6.24,3.23c1.71-1.74,8.6-8.49,8.88-9.25,0-1.09-3.42,0-8.92,2.83m-50.08.28c0,.82,1.23,1.76,2.75,2.09,17.4,3.85,26,8,35.86,17.43,4.43,4.23,4.55,4.27,8.43,3.11a23.73,23.73,0,0,0,9.22-5.73l-3.88-3c-2.14-1.65-5.47-4-7.41-5.13-11.24-6.77-45-13.34-45-8.76m11,2A79,79,0,0,1,39,48.72c3.24,2.64,6.47,5.21,7.17,5.73,1.51,1.12,9.45-2.12,9.45-3.86,0-1.35-8.53-7-14.55-9.7C32.61,37.09,18.38,34.51,8.14,34l5.5,1.51m47.8,1.55c-1.74.95-4.57,4.95-6,7L57.8,46c3.15,2.62,3.52,2.52,4.67-1.24,2.61-8.6,2.46-9.73-1-7.7M2.65,39.67c0,2.95,1.23,4,5.44,4.78,7.63,1.4,14.36,6.24,16,11.52.69,2.17,7.76,3.24,14.52,2.2l4.5-.69-6-4.79C27.93,45.32,17,40.21,6.89,38.54c-3.72-.62-4.25-.47-4.24,1.13m141.81,7.44c-.44,11.52,1.15,13.44,1.18.46,0-12.09-.71-12.76-1.18-.46M150,53c0,8.53.15,12,.34,7.75s.19-11.24,0-15.5S150,44.49,150,53M4.64,40.85c0,.46,2.68,1.58,6,2.49,6.38,1.77,12.15,6,14.62,10.82C26.6,56.84,27.06,57,32.91,57l6.23,0-3.81-3.37c-8-7-30.69-16.44-30.69-12.71m55.18.38C58.41,42.64,58.25,45,59.57,45s3.59-7,.25-3.78M5.64,47.92c0,2.62,11.45,9.56,14.69,8.9,1.21-.25,1.06-.87-.77-3.18C16.22,49.4,5.64,45.06,5.64,47.92m4,1.94c0,.88,3.45,3,6.81,4.2l2.69,1-2.93-2.44c-3-2.45-6.57-3.95-6.57-2.72M272,61c0,4.13.18,5.81.39,3.75a42.7,42.7,0,0,0,0-7.5c-.21-2.06-.39-.37-.39,3.75m74.39,3.72a37.13,37.13,0,0,0,7,0c2.08-.22.63-.4-3.22-.4s-5.55.17-3.78.39m-2.44,5a65.84,65.84,0,0,0,9,0c2.32-.21.17-.38-4.78-.37s-6.85.17-4.22.38"/><path class="cls-5" d="M9.61,3.26c-11.16,21.35-19,52,14.45,57l7.58,1.2V80.78c0,18.81.06,19.38,2.29,21.62a13.64,13.64,0,0,0,6.44,2.95c6.79,1.09,6.13,2.66-1.12,2.66-3.57,0-6.77.45-7.11,1s2.62,1,8.34,1c8.52,0,8.94-.1,8.44-2-.55-3.75-8.56-5.16-13.78-6.47-.14-10-.41-30.2-.55-40.22l5.51-.65c7.27-.85,14.27-3.26,18.29-6.29C68.22,47,69,30.25,60.51,10.66,55.54-.77,57.56,0,33,0H11.61l-2,3.25m1.83,2C7.76,11.07,2.07,27.9,3.38,29.08c.42.38,5.08.92,10.36,1.22,9,.5,9.9.37,14-2,6.76-3.91,19.45-8.27,26-9,3.26-.34,6.17-1,6.47-1.49.55-1.43-4.59-11.92-5.9-14.84H33.6c-20.41,0-20.76,0-22.16,2.25M47,23C39.78,24.89,27,30.71,28,31.66c.85.72,9.62,3.32,12.13,4.11,4.71-3.36,10.57-7,16.34-8.85,4.72-1.57,6.24-2.53,6-3.76C62,20.77,55.59,20.69,47,23m4.52,8.79c-4,2.06-7.39,4.2-7.56,4.75-.16,1.43,7.59,5.14,9.59,6.24,1.76-2.75,4.58-6.68,7.28-8.2,1.85-1.09,2.8-2.48,2.8-4.1,0-3.56-3.42-3.19-12.11,1.31m-48.71,2c.23,1.17,1.75,2,4.75,2.47A66.28,66.28,0,0,1,40,52c3,2.75,6.23,5,7.18,5,2.57,0,11.6-5.18,11.2-6.42-.73-2.23-10.47-8.69-17.57-11.66C32.38,35.43,16.22,32,8,32c-4.71,0-5.49.26-5.21,1.73m55.89,6c-1.69,2-3.07,4-3.07,4.44,0,.79,4,3.83,5.1,3.83.82,0,2.57-4.48,3.41-8.75.9-4.52-1.49-4.31-5.44.48m30.36-2.43c-.65,1.7,8.47,31,9.94,31.92a2,2,0,0,0,2.33-.5C103.05,67,111.88,38.22,111.1,37c-1.8-2.91-3.87.14-7.11,10.51-1.89,6-3.6,11.13-3.81,11.34s-2-4.83-4-11.2C93.68,39.59,92.1,36,91.07,36a2.3,2.3,0,0,0-2,1.3m30-.09c-.29.76-.4,8.33-.25,16.83.23,13,.52,15.46,1.78,15.46s1.5-2.49,1.5-16.42c0-12.24-.32-16.52-1.25-16.83a1.48,1.48,0,0,0-1.78,1m42.55.08c-3.89,2-5,5.36-5,15.41,0,10.77,1,13.61,5.72,15.85a10.39,10.39,0,0,0,12.36-2.14c2.12-2.26,2.45-3.67,2.75-11.89.26-7.12,0-10.14-1.3-12.78-2.53-5.34-8.91-7.29-14.52-4.45m39.59-.47c-.54.87.54,4.86,6.39,23.68,2.33,7.52,3.84,9.85,5.62,8.72,1.53-1,10.65-30.06,10-31.82a2.33,2.33,0,0,0-2-1.4c-1.94-.48-7.41,19.2-8.9,23.5L208.64,48c-2.43-7.6-4.21-11.6-5.25-11.8a2.18,2.18,0,0,0-2.14.62M236,37c-4.28,1.73-5.35,4.79-5.35,15.28,0,12,1.28,15.14,6.88,16.82,4.86,1.45,8.75.28,11.55-3.48,1.78-2.38,2.07-4.22,2.07-13.27V41.85l-3.27-2.92A10.81,10.81,0,0,0,236,37m22.36.31c-.27.71,1.68,5,4.35,9.51,4.43,7.5,4.87,8.85,5.14,15.45.23,5.64.63,7.24,1.8,7.24s1.61-1.78,2-8c.45-7.24.91-8.69,4.86-15.24S281.27,36,278.68,36c-.56,0-2.2,1.91-3.64,4.25-6.25,10.12-5.08,9.83-9.56,2.36-3.81-6.36-6.08-8-7.13-5.31m34-.6c-.58,1-8.35,25.74-9.24,29.42-.44,1.83-.17,2.78.88,3.19,1.81.69,3.25-.88,4.17-4.56.65-2.57,1-2.75,6-2.75s5.35.14,6,2.93c.78,3.54,2.6,5.25,4.41,4.14s-7.75-32.42-10.11-32.87a2.12,2.12,0,0,0-2.07.5M316,37c-4.36,1.76-5.35,4.74-5.35,16,0,12,.88,14.15,6.5,16,8,2.65,13.79-1.88,13.29-10.44l-.29-5.06h-5c-3.95,0-5.06.36-5.32,1.75s.34,1.75,2.76,1.75c3.64,0,4.81,2,3.2,5.57-.85,1.86-1.88,2.43-4.38,2.42-5.63,0-5.87-.58-5.56-12.5.28-10.8.3-10.85,2.94-11.56,3.5-.93,7.11,1,7.85,4.08.84,3.59,3.43,3.16,3.8-.62.58-6-7.61-10.16-14.45-7.4m23.31.27c-1.52,1.11-1.69,3-1.44,16.25l.28,15,9.75.29c9.23.27,9.75.18,9.75-1.75s-.63-2-7.5-2h-7.5V55.12l5.25-.31c3.86-.22,5.25-.69,5.25-1.8s-1.39-1.58-5.25-1.8l-5.25-.3V41h7c5.52,0,7.16-.34,7.64-1.6a2.13,2.13,0,0,0-.78-2.48c-2.14-1.36-15.26-1.1-17.23.34m-209.22,1c-.28.71-.38,7.8-.22,15.75.26,13.69.38,14.45,2.28,14.45s2-.83,2.5-9.85l.5-9.86c2.28,4,10.48,21,12.65,20.21,1.72,0,1.85-1.1,1.85-16,0-15.33-.09-16-2-16s-2,.67-2,10.2c0,6.06-.37,9.82-.9,9.25a96.86,96.86,0,0,1-5.15-9c-2.34-4.4-4.69-8.56-5.23-9.25-1.26-1.63-3.65-1.6-4.28.05M2.82,40.67C3.1,43,3.89,43.53,9.22,45c7.47,2,12.21,5.29,14,9.62,1.18,2.83,2,3.38,5.88,4,4.17.68,9.81,0,14-.76l-5-4.41C32,48,20.14,41.7,12,39.6c-8.63-2.23-9.55-2.12-9.17,1.07m162.32.14c-3.1.67-3.47,2-3.49,12.25,0,10.56.62,12,5.49,12a7.3,7.3,0,0,0,4.3-1.2c1.68-1.68,1.63-20.21-.05-21.52a7.39,7.39,0,0,0-6.25-1.48m73.5.16c-2.46.62-2.51.84-2.79,11.5-.31,11.93-.07,12.5,5.5,12.53,2.17,0,3.55-.62,4.25-1.92,1.51-2.83,1.34-19.59-.21-20.79A7.25,7.25,0,0,0,238.64,41m-233,6.94c0,3.07,13.71,10.72,15.68,8.75,1-1-4.79-6.65-8.56-8.23s-7.12-1.85-7.12-.52m286.67,3.53C290.09,58,290.1,58,294.15,58c3.34,0,3.49-.15,2.87-2.75a65.7,65.7,0,0,0-3-8.74l-1.68,4.92"/></g></g></svg>